<svg width="142" height="48" viewBox="0 0 142 48" fill="none" xmlns="http://www.w3.org/2000/svg">
<g clip-path="url(#clip0_19_155)">
<path d="M130 0H12C5.37258 0 0 5.37258 0 12V36C0 42.6274 5.37258 48 12 48H130C136.627 48 142 42.6274 142 36V12C142 5.37258 136.627 0 130 0Z" fill="black" style="fill:black;fill-opacity:1;"/>
<mask id="mask0_19_155" style="mask-type:luminance" maskUnits="userSpaceOnUse" x="12" y="12" width="13" height="24">
<path d="M12.9786 35.998L12.9067 35.9286C12.629 35.6299 12.4644 35.1681 12.4644 34.5676V34.7096V13.29V13.2851V13.4329C12.4644 12.783 12.6557 12.2938 12.9777 12L24.8577 23.9994L12.9786 35.998Z" fill="white" style="fill:white;fill-opacity:1;"/>
</mask>
<g mask="url(#mask0_19_155)">
<path fill-rule="evenodd" clip-rule="evenodd" d="M12.9786 35.998L12.9067 35.9286C12.629 35.6299 12.4644 35.1681 12.4644 34.5676V34.7096V13.29V13.2851V13.4329C12.4644 12.783 12.6557 12.2938 12.9777 12L24.8577 23.9994L12.9786 35.998Z" fill="#00D0FF" style="fill:#00D0FF;fill:color(display-p3 0.0000 0.8157 1.0000);fill-opacity:1;"/>
</g>
<mask id="mask1_19_155" style="mask-type:luminance" maskUnits="userSpaceOnUse" x="24" y="19" width="11" height="10">
<path d="M33.5999 25.3982C34.0463 25.1415 34.345 24.8299 34.4935 24.5006C34.345 24.8299 34.0471 25.1415 33.5999 25.3982ZM28.8187 28.0007L24.8577 24.0001L28.8187 19.9995L33.5999 22.7425C34.2069 23.0912 34.5484 23.5416 34.6049 23.9993V24.0009C34.5484 24.4594 34.2069 24.9082 33.5999 25.257L28.8187 28.0007Z" fill="white" style="fill:white;fill-opacity:1;"/>
</mask>
<g mask="url(#mask1_19_155)">
<path fill-rule="evenodd" clip-rule="evenodd" d="M33.5999 25.3982C34.0463 25.1415 34.345 24.8299 34.4935 24.5006C34.345 24.8299 34.0471 25.1415 33.5999 25.3982ZM28.8187 28.0007L24.8577 24.0001L28.8187 19.9995L33.5999 22.7425C34.2069 23.0912 34.5484 23.5416 34.6049 23.9993V24.0009C34.5484 24.4594 34.2069 24.9082 33.5999 25.257L28.8187 28.0007Z" fill="#FFC800" style="fill:#FFC800;fill:color(display-p3 1.0000 0.7843 0.0000);fill-opacity:1;"/>
</g>
<mask id="mask2_19_155" style="mask-type:luminance" maskUnits="userSpaceOnUse" x="12" y="24" width="17" height="13">
<path d="M13.8261 36.4538C13.8259 36.4538 13.8263 36.4538 13.8261 36.4538C13.8544 36.4538 13.8842 36.4538 13.9141 36.4522C13.8842 36.4538 13.8544 36.4538 13.8253 36.4538H13.8261ZM13.8261 36.3126C13.5138 36.3194 13.2107 36.2068 12.9785 35.9978L24.8576 24L28.8187 28.0006L14.9005 35.9873C14.5155 36.2084 14.1506 36.3126 13.8261 36.3126Z" fill="white" style="fill:white;fill-opacity:1;"/>
</mask>
<g mask="url(#mask2_19_155)">
<path fill-rule="evenodd" clip-rule="evenodd" d="M13.8261 36.4538C13.8259 36.4538 13.8263 36.4538 13.8261 36.4538C13.8544 36.4538 13.8842 36.4538 13.9141 36.4522C13.8842 36.4538 13.8544 36.4538 13.8253 36.4538H13.8261ZM13.8261 36.3126C13.5138 36.3194 13.2107 36.2068 12.9785 35.9978L24.8576 24L28.8187 28.0006L14.9005 35.9873C14.5155 36.2084 14.1506 36.3126 13.8261 36.3126Z" fill="url(#paint0_linear_19_155)" style=""/>
</g>
<mask id="mask3_19_155" style="mask-type:luminance" maskUnits="userSpaceOnUse" x="12" y="11" width="17" height="14">
<path d="M24.8576 24.0001L12.9785 12.0007C13.2104 11.7924 13.5128 11.6801 13.8245 11.6867C14.149 11.6867 14.5139 11.7916 14.9005 12.012L28.8187 19.9995L24.8576 24.0001ZM14.9005 11.8707C14.5155 11.6503 14.149 11.5454 13.8245 11.5454H13.8204H13.8261C14.1498 11.5454 14.5155 11.6495 14.9005 11.8707Z" fill="white" style="fill:white;fill-opacity:1;"/>
</mask>
<g mask="url(#mask3_19_155)">
<path fill-rule="evenodd" clip-rule="evenodd" d="M24.8576 24.0001L12.9785 12.0007C13.2104 11.7924 13.5128 11.6801 13.8245 11.6867C14.149 11.6867 14.5139 11.7916 14.9005 12.012L28.8187 19.9995L24.8576 24.0001ZM14.9005 11.8707C14.5155 11.6503 14.149 11.5454 13.8245 11.5454H13.8204H13.8261C14.1498 11.5454 14.5155 11.6495 14.9005 11.8707Z" fill="#00F076" style="fill:#00F076;fill:color(display-p3 0.0000 0.9412 0.4627);fill-opacity:1;"/>
</g>
<path fill-rule="evenodd" clip-rule="evenodd" d="M13.9146 36.4525C14.2165 36.4347 14.5506 36.3306 14.901 36.1296L28.8183 28.1421L14.9018 36.1288C14.5506 36.3306 14.2165 36.4355 13.9146 36.4525Z" fill="black" style="fill:black;fill-opacity:1;"/>
<mask id="mask4_19_155" style="mask-type:luminance" maskUnits="userSpaceOnUse" x="12" y="28" width="17" height="9">
<path d="M13.8273 36.4542C13.4955 36.4542 13.2049 36.3452 12.9797 36.1394H12.9781C12.9781 36.1394 12.9765 36.1394 12.9757 36.1378L12.9143 36.0772L12.9087 36.07L12.9797 35.9981C13.2049 36.204 13.4939 36.313 13.8265 36.313C14.151 36.313 14.5159 36.208 14.9009 35.9876L28.8191 28.001L28.9079 28.0906L28.8183 28.1422L14.9017 36.1289C14.5498 36.3307 14.2156 36.4357 13.9145 36.4526C13.8846 36.4542 13.8556 36.4542 13.8273 36.4542Z" fill="white" style="fill:white;fill-opacity:1;"/>
</mask>
<g mask="url(#mask4_19_155)">
<path fill-rule="evenodd" clip-rule="evenodd" d="M13.8273 36.4542C13.4955 36.4542 13.2049 36.3452 12.9797 36.1394H12.9781C12.9781 36.1394 12.9765 36.1394 12.9757 36.1378L12.9143 36.0772L12.9087 36.07L12.9797 35.9981C13.2049 36.204 13.4939 36.313 13.8265 36.313C14.151 36.313 14.5159 36.208 14.9009 35.9876L28.8191 28.001L28.9079 28.0906L28.8183 28.1422L14.9017 36.1289C14.5498 36.3307 14.2156 36.4357 13.9145 36.4526C13.8846 36.4542 13.8556 36.4542 13.8273 36.4542Z" fill="url(#paint1_linear_19_155)" style=""/>
</g>
<path fill-rule="evenodd" clip-rule="evenodd" d="M12.9067 36.07C12.629 35.7729 12.4644 35.3096 12.4644 34.7106V34.709C12.4644 35.3096 12.629 35.7721 12.9067 36.07Z" fill="black" style="fill:black;fill-opacity:1;"/>
<mask id="mask5_19_155" style="mask-type:luminance" maskUnits="userSpaceOnUse" x="12" y="35" width="1" height="2">
<path d="M12.9085 36.0699H12.9077L12.9796 35.998L12.9085 36.0699Z" fill="white" style="fill:white;fill-opacity:1;"/>
</mask>
<g mask="url(#mask5_19_155)">
<path fill-rule="evenodd" clip-rule="evenodd" d="M12.9085 36.0699H12.9077L12.9796 35.998L12.9085 36.0699Z" fill="url(#paint2_linear_19_155)" style=""/>
</g>
<path fill-rule="evenodd" clip-rule="evenodd" d="M34.6049 24.0002C34.6041 23.4932 34.2691 22.9863 33.5999 22.6029L28.9083 19.9092L33.5999 22.6013C34.2699 22.9863 34.6057 23.4932 34.6049 24.0002ZM12.4692 13.1188C12.5241 12.1243 13.0601 11.5488 13.8173 11.5456C13.5081 11.5407 13.2085 11.6528 12.9786 11.8596L12.977 11.8628C12.9528 11.8838 12.9294 11.9072 12.9076 11.9306C12.6565 12.1994 12.4975 12.6022 12.4692 13.1188Z" fill="#404040" style="fill:#404040;fill:color(display-p3 0.2510 0.2510 0.2510);fill-opacity:1;"/>
<path fill-rule="evenodd" clip-rule="evenodd" d="M45.8545 13.5541C45.8589 13.5203 45.8634 13.4864 45.866 13.4526V13.4472H45.7582L45.7466 13.5541H43.4287V12.5703H46.734L46.7501 12.6576C46.7813 12.8305 46.7973 12.9981 46.7973 13.1603C46.7973 14.0755 46.5228 14.8223 45.9703 15.3757L45.8928 15.3026L45.9685 15.3784L45.9703 15.3757C45.3465 16.0307 44.5257 16.3595 43.5356 16.3586C42.5848 16.3595 41.7649 16.0262 41.0992 15.365C40.4308 14.7046 40.094 13.875 40.0948 12.9C40.0948 11.926 40.4308 11.0963 41.0992 10.4368C41.7649 9.77467 42.5848 9.44049 43.5356 9.44227C44.0088 9.44227 44.4633 9.53495 44.8947 9.71853C45.3242 9.90389 45.6753 10.1517 45.9382 10.4654L46.0015 10.5411L45.932 10.6097L45.285 11.2567L45.2101 11.1676C44.8047 10.6864 44.2593 10.4458 43.5347 10.4458C42.8851 10.4458 42.3335 10.6694 41.8576 11.1266C41.3853 11.5829 41.1518 12.1648 41.1509 12.9C41.1518 13.6361 41.3861 14.2181 41.8576 14.6743C42.0777 14.8942 42.3395 15.0679 42.6276 15.1851C42.9158 15.3023 43.2245 15.3607 43.5356 15.357C44.2281 15.3561 44.7922 15.1288 45.252 14.6708C45.5194 14.4034 45.686 14.0345 45.7466 13.5541H45.8545ZM45.2957 11.0954L45.3679 11.0241L45.3741 11.0304L45.2957 11.0954ZM45.2217 11.0179L45.293 11.0981L45.2164 11.0232L45.2217 11.0179ZM51.7255 10.4805V9.58485H47.766V16.2152H51.7255V15.2135H48.8024V13.392H51.4385V12.4081H48.8033V10.5875H51.7263L51.7255 10.4805ZM55.2028 16.1082V10.5875H56.994V9.58485H52.3707V10.5875H54.1628V16.2152H55.2028V16.1082ZM60.0775 16.2152H61.0096V9.58575H59.9705V16.2161H60.0775V16.2152ZM64.6661 16.1082V10.5875H66.4582V9.58485H61.8349V10.5875H63.6279V16.2152H64.6661V16.1082ZM70.6788 14.6672C71.1369 15.1288 71.6831 15.3543 72.3453 15.357C73.0083 15.3561 73.5555 15.1288 74.0118 14.6672C74.4663 14.2047 74.6935 13.6245 74.6944 12.9C74.6935 12.1764 74.4671 11.5954 74.0126 11.1337C73.5555 10.6721 73.0083 10.4458 72.3453 10.4449C71.6831 10.4458 71.1369 10.6721 70.6779 11.1337C70.2234 11.5945 69.9979 12.1764 69.9971 12.9C69.9971 13.6245 70.2243 14.2065 70.6788 14.6672ZM74.7746 15.3534C74.1267 16.0227 73.3077 16.3604 72.3453 16.3586C71.3828 16.3595 70.5647 16.0227 69.9168 15.3534C69.2672 14.6886 68.9401 13.8616 68.941 12.9C68.9401 11.9394 69.2672 11.1132 69.9168 10.4475C70.5647 9.77913 71.3828 9.44049 72.3453 9.44227C73.3024 9.44049 74.1187 9.78002 74.7701 10.4511C75.4216 11.1195 75.7504 11.9447 75.7504 12.9C75.7504 13.8625 75.4243 14.6886 74.7746 15.3534ZM80.9584 14.6824V14.6619L80.9227 14.6833H80.9584V14.6824ZM77.6254 10.8753H77.5889V10.8967L77.6254 10.8753L77.6245 10.9822H77.5916L77.5933 11.0268L77.7047 11.2068L77.7315 12.1105V16.2152H76.6933V9.58575H77.8634L80.8417 14.3535L80.847 14.5629L80.9227 14.6833V14.5781H80.9557L80.9539 14.5335L80.8417 14.3535L80.8149 13.4499V9.58485H81.854V16.2152H80.8274L77.7047 11.2068L77.6985 10.9929L77.6254 10.8753ZM112.333 34.288H110.337V20.9205H112.333V34.288ZM126.024 31.5316L128.311 25.7355H130.53L125.044 38.3428H122.962L124.992 33.8362L121.432 25.7355H123.581L125.955 31.5316H126.024ZM115.429 31.635C115.429 32.4433 116.34 32.7695 116.994 32.7695C117.579 32.7631 118.141 32.5454 118.577 32.1567C119.014 31.7679 119.295 31.2344 119.368 30.6547C118.834 30.3963 118.422 30.2074 117.544 30.2074C116.565 30.2074 115.429 30.6031 115.429 31.635ZM113.675 27.4902C114.294 26.0795 115.791 25.4432 117.235 25.4432C119.523 25.4432 121.293 26.7675 121.293 29.1415V34.2657H119.368V33.2338H119.299C118.834 33.9396 118.095 34.542 116.753 34.542C114.999 34.542 113.433 33.3888 113.433 31.6003C113.433 29.6397 115.378 28.5908 117.287 28.5908C118.233 28.5908 119.006 28.9 119.368 29.1059V28.9695C119.351 27.8681 118.302 27.2487 117.27 27.2487C116.529 27.2487 115.824 27.4902 115.447 28.229L113.675 27.4902ZM102.065 27.3628H104.903C106.395 27.3628 107.242 26.1071 107.242 25.0716C107.242 24.0156 106.395 22.7813 104.903 22.7813H102.065V27.3628ZM100.07 20.9196H104.851C107.063 20.9196 109.237 22.5211 109.237 25.0716C109.237 27.6221 107.063 29.2244 104.851 29.2244H102.065V34.288H100.07V20.9196ZM76.2459 30.0336C76.2459 31.6181 77.4 32.7722 78.7786 32.7722C80.1403 32.7722 81.207 31.6181 81.207 30.0336C81.207 28.4313 80.1403 27.2594 78.7786 27.2594C77.4 27.2594 76.2459 28.4313 76.2459 30.0336ZM81.0012 26.4841H81.0689V25.7426H82.9653V33.9102C82.9653 37.269 80.9834 38.6476 78.6405 38.6476C76.4357 38.6476 75.1088 37.1665 74.6088 35.9599L76.3493 35.2362C76.6594 35.9768 77.4169 36.8564 78.6405 36.8564C80.1403 36.8564 81.0689 35.926 81.0689 34.1847V33.5305H81.0012C80.5529 34.0822 79.6912 34.5643 78.6066 34.5643C76.3315 34.5643 74.2479 32.5823 74.2479 30.0336C74.2479 27.4653 76.3315 25.4682 78.6057 25.4682C79.6921 25.4682 80.5529 25.9503 81.0012 26.4841ZM86.3428 34.288H84.3439V20.9187H86.3428V34.288ZM91.6649 27.2246C90.6489 27.2246 89.2364 28.1212 89.2872 29.8785L93.3536 28.1898C93.13 27.6203 92.458 27.2246 91.6649 27.2246ZM91.5963 25.4682C93.957 25.4682 95.1119 27.3458 95.4898 28.3618L95.6965 28.8786L89.6152 31.3944C90.0804 32.307 90.804 32.7722 91.8199 32.7722C92.8368 32.7722 93.5435 32.2731 94.0603 31.5147L95.611 32.5485C95.1119 33.2899 93.9053 34.5643 91.8199 34.5643C89.2364 34.5643 87.3071 32.5654 87.3071 30.0158C87.3071 27.3102 89.2534 25.4682 91.5963 25.4682ZM47.0379 28.7922V26.8637H53.5319C53.6014 27.2077 53.6361 27.6212 53.6361 28.0686C53.6361 29.5167 53.2396 31.308 51.9643 32.5823C50.7238 33.8754 49.1393 34.5643 47.0379 34.5643C43.1435 34.5643 39.8703 31.3944 39.8703 27.5009C39.8703 23.6065 43.1444 20.4366 47.0379 20.4366C49.1919 20.4366 50.7238 21.2815 51.8787 22.3838L50.5179 23.7455C49.6909 22.9702 48.5716 22.3669 47.0379 22.3669C44.1951 22.3669 41.9716 24.6572 41.9716 27.5009C41.9716 30.3437 44.1951 32.634 47.0379 32.634C48.88 32.634 49.9315 31.8944 50.6044 31.2224C51.1551 30.6699 51.516 29.8785 51.6542 28.7931L47.0379 28.7922ZM56.3176 30.0158C56.3176 31.635 57.5073 32.7722 58.886 32.7722C60.2628 32.7722 61.4525 31.635 61.4525 30.0158C61.4525 28.3787 60.2628 27.2594 58.886 27.2594C57.5073 27.2594 56.3176 28.3787 56.3176 30.0158ZM54.3196 30.0158C54.3196 27.3797 56.3693 25.4682 58.886 25.4682C61.4009 25.4682 63.4505 27.3797 63.4505 30.0158C63.4505 32.634 61.4009 34.5643 58.886 34.5643C56.3693 34.5643 54.3196 32.634 54.3196 30.0158ZM66.2773 30.0158C66.2773 31.635 67.4661 32.7722 68.8448 32.7722C70.2234 32.7722 71.4113 31.635 71.4113 30.0158C71.4113 28.3787 70.2234 27.2594 68.8448 27.2594C67.4661 27.2594 66.2773 28.3787 66.2773 30.0158ZM64.2793 30.0158C64.2793 27.3797 66.329 25.4682 68.8448 25.4682C71.3605 25.4682 73.4102 27.3797 73.4102 30.0158C73.4102 32.634 71.3605 34.5643 68.8448 34.5643C66.3299 34.5643 64.2793 32.634 64.2793 30.0158Z" fill="white" style="fill:white;fill-opacity:1;"/>
</g>
<defs>
<linearGradient id="paint0_linear_19_155" x1="26.7158" y1="27.8198" x2="9.07317" y2="45.2179" gradientUnits="userSpaceOnUse">
<stop stop-color="#FF3944" style="stop-color:#FF3944;stop-color:color(display-p3 1.0000 0.2235 0.2667);stop-opacity:1;"/>
<stop offset="1" stop-color="#C31161" style="stop-color:#C31161;stop-color:color(display-p3 0.7647 0.0667 0.3804);stop-opacity:1;"/>
</linearGradient>
<linearGradient id="paint1_linear_19_155" x1="26.7082" y1="30.5841" x2="12.6722" y2="44.4812" gradientUnits="userSpaceOnUse">
<stop stop-color="#CC2D36" style="stop-color:#CC2D36;stop-color:color(display-p3 0.8000 0.1765 0.2118);stop-opacity:1;"/>
<stop offset="1" stop-color="#9C0E4E" style="stop-color:#9C0E4E;stop-color:color(display-p3 0.6118 0.0549 0.3059);stop-opacity:1;"/>
</linearGradient>
<linearGradient id="paint2_linear_19_155" x1="13.9757" y1="35.3079" x2="12.3443" y2="36.9449" gradientUnits="userSpaceOnUse">
<stop stop-color="#DF333B" style="stop-color:#DF333B;stop-color:color(display-p3 0.8745 0.2000 0.2314);stop-opacity:1;"/>
<stop offset="1" stop-color="#AB0F55" style="stop-color:#AB0F55;stop-color:color(display-p3 0.6706 0.0588 0.3333);stop-opacity:1;"/>
</linearGradient>
<clipPath id="clip0_19_155">
<rect width="142" height="48" fill="white" style="fill:white;fill-opacity:1;"/>
</clipPath>
</defs>
</svg>
